<?xml version="1.0" standalone="no"?>
<!DOCTYPE svg PUBLIC "-//W3C//DTD SVG 20010904//EN"
 "http://www.w3.org/TR/2001/REC-SVG-20010904/DTD/svg10.dtd">
<svg version="1.0" xmlns="http://www.w3.org/2000/svg"
 width="1920.000000pt" height="1080.000000pt" viewBox="0 0 1920.000000 1080.000000"
 preserveAspectRatio="xMidYMid meet">

<g transform="translate(0.000000,1080.000000) scale(0.100000,-0.100000)"
fill="#000000" stroke="none">
<path d="M9238 9551 c-26 -17 -60 -49 -75 -72 l-28 -43 -3 -478 c-2 -319 1
-491 8 -518 6 -22 25 -57 43 -77 48 -55 97 -73 198 -73 96 0 99 -2 99 -69 0
-25 7 -44 20 -56 31 -28 26 -55 -11 -55 -17 0 -56 -7 -86 -16 -87 -25 -135
-77 -200 -214 -82 -174 -55 -160 -321 -160 l-225 0 -37 40 c-35 38 -39 40 -99
40 -57 0 -64 -3 -104 -39 -37 -34 -50 -39 -108 -45 -36 -3 -87 -13 -112 -22
-60 -20 -131 -84 -165 -148 l-27 -51 0 -690 c0 -790 -8 -722 96 -821 98 -92
-14 -85 1324 -82 l1180 3 46 27 c25 15 64 47 88 73 81 88 76 37 76 795 0 762
3 729 -79 818 -72 79 -148 102 -332 102 -63 0 -124 5 -135 11 -12 6 -47 67
-83 142 -47 99 -73 141 -104 169 -44 40 -121 68 -184 68 -31 0 -38 4 -38 20 0
10 9 24 20 30 15 8 20 23 22 68 l3 57 101 5 101 5 59 54 c32 29 64 65 71 80 9
19 12 155 13 511 l0 485 -24 45 c-13 26 -42 58 -67 75 l-44 30 -415 3 -415 3
-47 -30z m867 -70 c17 -9 40 -36 53 -61 20 -41 22 -58 22 -218 0 -191 -3 -204
-63 -252 l-31 -25 -386 0 -387 0 -36 28 c-63 48 -67 64 -67 269 0 164 2 186
20 215 23 38 51 55 105 62 22 4 198 5 390 3 306 -3 354 -6 380 -21z m-375
-1347 c0 -23 -3 -25 -42 -22 -30 2 -43 8 -44 18 -1 26 6 30 47 30 35 0 39 -2
39 -26z m93 -648 c112 -24 229 -88 317 -175 80 -80 119 -140 166 -256 27 -66
28 -78 28 -225 1 -152 0 -157 -32 -236 -68 -171 -179 -292 -336 -368 -111 -54
-167 -66 -299 -66 -148 1 -244 27 -355 97 -168 106 -275 270 -310 475 -16 92
-15 104 1 201 26 153 84 265 191 372 88 88 201 154 306 179 74 19 240 19 323
2z m-898 -76 c55 -21 73 -127 29 -179 -21 -26 -33 -31 -69 -31 -35 0 -49 6
-74 31 -26 25 -31 38 -31 78 0 39 5 52 28 73 41 39 70 46 117 28z"/>
<path d="M9530 7354 c-92 -25 -153 -58 -221 -121 -157 -148 -219 -373 -155
-563 51 -151 144 -258 283 -327 l78 -38 155 0 c147 0 158 2 213 27 236 110
370 371 313 611 -47 199 -205 361 -403 412 -72 19 -191 18 -263 -1z"/>
<path d="M5634 5246 c-177 -41 -298 -152 -361 -332 -27 -78 -28 -81 -31 -379
-4 -342 3 -400 64 -523 45 -93 115 -163 224 -225 l85 -49 116 6 c138 7 221 30
305 85 73 48 112 89 159 166 28 47 75 167 75 191 0 2 -48 4 -107 4 l-108 0
-24 -55 c-28 -66 -84 -125 -149 -156 -70 -34 -188 -33 -257 3 -65 34 -97 69
-132 143 l-28 60 0 320 c0 306 1 322 21 366 28 61 87 125 138 151 57 29 159
35 224 14 68 -23 145 -94 183 -167 l29 -59 100 0 c54 0 101 3 103 8 9 14 -41
152 -72 201 -37 58 -133 151 -180 176 -110 56 -262 77 -377 51z"/>
<path d="M11654 5245 c-192 -42 -337 -191 -379 -393 -21 -96 -21 -599 0 -697
43 -203 182 -351 373 -395 72 -17 214 -14 285 4 177 48 309 185 352 368 22 94
21 655 -1 742 -25 95 -61 162 -126 232 -120 127 -313 181 -504 139z m276 -231
c83 -45 130 -113 149 -219 14 -74 14 -514 1 -586 -31 -160 -140 -253 -301
-253 -126 0 -221 60 -273 173 -20 44 -21 62 -21 371 0 321 0 326 24 378 29 65
107 137 170 157 73 23 187 14 251 -21z"/>
<path d="M14834 5245 c-192 -42 -337 -191 -379 -393 -21 -96 -21 -599 0 -697
43 -203 182 -351 373 -395 72 -17 214 -14 285 4 177 48 309 185 352 368 22 94
21 655 -1 742 -25 95 -61 162 -126 232 -120 127 -313 181 -504 139z m276 -231
c83 -45 130 -113 149 -219 14 -74 14 -514 1 -586 -31 -160 -140 -253 -301
-253 -126 0 -221 60 -273 173 -20 44 -21 62 -21 371 0 321 0 326 24 378 29 65
107 137 170 157 73 23 187 14 251 -21z"/>
<path d="M16593 5245 c-110 -20 -204 -68 -268 -136 -79 -86 -99 -145 -99 -289
0 -152 20 -205 105 -284 70 -65 136 -90 355 -131 265 -51 334 -99 334 -235 0
-91 -41 -149 -135 -192 -40 -18 -73 -23 -163 -26 -173 -6 -281 22 -394 104
-28 19 -51 34 -52 32 -1 -2 -31 -38 -66 -82 -34 -43 -59 -81 -53 -85 5 -3 30
-21 57 -39 72 -51 166 -90 284 -118 95 -23 119 -25 217 -19 199 13 336 64 420
157 60 67 87 141 93 255 6 125 -19 210 -84 282 -74 83 -133 106 -479 185 -115
27 -169 55 -209 109 -17 23 -21 43 -21 101 0 61 4 79 26 112 90 136 364 150
561 29 31 -19 58 -35 61 -35 6 0 117 155 117 164 0 10 -115 73 -184 100 -133
54 -277 68 -423 41z"/>
<path d="M3867 5239 c-145 -34 -243 -151 -267 -319 -16 -111 4 -221 64 -361 5
-12 -1 -20 -24 -29 -48 -20 -135 -121 -160 -187 -50 -132 -33 -323 38 -427 45
-66 84 -99 155 -131 153 -70 407 -50 561 46 l49 30 51 -50 52 -51 127 0 c70 0
127 4 127 8 0 4 -23 30 -51 57 -28 28 -77 80 -110 116 l-59 67 34 73 c18 41
40 101 49 134 17 63 37 206 37 262 l0 33 -99 0 -99 0 -6 -67 c-9 -91 -31 -212
-48 -252 l-13 -33 -169 180 c-186 199 -220 242 -261 334 -30 67 -44 174 -31
242 15 78 87 129 182 130 102 0 167 -56 180 -155 l7 -49 105 0 105 0 -6 68
c-14 171 -106 287 -259 328 -58 15 -202 17 -261 3z m102 -1048 c180 -188 182
-190 159 -205 -54 -35 -105 -49 -183 -50 -136 -2 -221 39 -265 125 -28 54 -28
167 1 226 18 37 78 93 100 93 3 0 88 -85 188 -189z"/>
<path d="M1865 4509 c-149 -402 -271 -735 -273 -740 -2 -5 47 -9 110 -9 l115
0 54 160 54 160 299 -2 299 -3 55 -157 55 -158 113 0 114 0 -18 48 c-10 26
-133 359 -273 739 l-254 693 -90 0 -90 0 -270 -731z m475 102 c60 -178 110
-325 110 -327 0 -2 -101 -4 -225 -4 -124 0 -225 4 -225 8 0 5 50 152 110 327
61 176 110 321 110 324 0 19 23 -44 120 -328z"/>
<path d="M7750 4500 l0 -740 105 0 105 0 0 285 0 285 204 0 c235 0 285 7 383
55 145 71 223 211 223 400 0 222 -113 383 -308 437 -58 16 -106 18 -389 18
l-323 0 0 -740z m651 529 c57 -20 100 -59 126 -116 22 -47 25 -65 21 -142 -3
-77 -7 -94 -33 -137 -20 -31 -47 -58 -75 -74 -44 -24 -52 -25 -262 -28 l-218
-3 0 255 0 256 204 0 c125 0 216 -4 237 -11z"/>
<path d="M9460 4500 l0 -740 105 0 105 0 0 315 0 315 315 0 315 0 0 -315 0
-315 105 0 105 0 0 740 0 740 -105 0 -105 0 0 -325 0 -325 -315 0 -315 0 0
325 0 325 -105 0 -105 0 0 -740z"/>
<path d="M12860 5140 l0 -100 210 0 210 0 0 -640 0 -640 105 0 105 0 0 640 0
640 210 0 210 0 0 100 0 100 -525 0 -525 0 0 -100z"/>
<path d="M5210 2536 c-9 -24 -11 -25 -97 -19 -99 6 -134 -5 -172 -53 -30 -39
-26 -104 6 -104 11 0 13 6 9 20 -3 11 -9 29 -12 39 -9 29 33 66 85 75 24 4 46
4 49 1 3 -3 -7 -57 -22 -121 -24 -99 -32 -116 -55 -129 -24 -13 -22 -14 49
-13 41 1 60 3 42 5 -29 4 -31 7 -25 31 3 15 18 72 32 127 l26 100 45 3 c50 4
70 16 70 43 0 27 -19 23 -30 -5z"/>
<path d="M9490 2536 c-9 -24 -11 -25 -97 -19 -99 6 -134 -5 -172 -53 -30 -39
-26 -104 6 -104 11 0 13 6 9 20 -3 11 -9 29 -12 39 -9 29 33 66 85 75 24 4 46
4 49 1 3 -3 -7 -57 -22 -121 -24 -99 -32 -116 -55 -129 -24 -13 -22 -14 49
-13 41 1 60 3 42 5 -29 4 -31 7 -25 31 3 15 18 72 32 127 l26 100 45 3 c50 4
70 16 70 43 0 27 -19 23 -30 -5z"/>
<path d="M13560 2536 c-9 -24 -11 -25 -97 -19 -99 6 -134 -5 -172 -53 -30 -39
-26 -104 6 -104 11 0 13 6 9 20 -3 11 -9 29 -12 39 -9 29 33 66 85 75 24 4 46
4 49 1 3 -3 -7 -57 -22 -121 -24 -99 -32 -116 -55 -129 -24 -13 -22 -14 49
-13 41 1 60 3 42 5 -29 4 -31 7 -25 31 3 15 18 72 32 127 l26 100 45 3 c50 4
70 16 70 43 0 27 -19 23 -30 -5z"/>
<path d="M3695 2519 c-27 -4 -59 -13 -72 -20 -24 -13 -48 -62 -38 -78 12 -20
25 -11 25 18 0 35 19 52 70 61 37 7 53 -1 31 -15 -6 -3 -44 -56 -87 -118 -97
-142 -120 -167 -156 -167 -29 0 -38 -17 -14 -26 24 -9 68 24 116 87 42 56 47
59 87 59 47 0 46 1 26 -72 -4 -16 3 -18 49 -17 29 1 41 4 26 6 -34 5 -35 19
-13 168 17 117 17 125 8 124 -5 -1 -30 -5 -58 -10z m14 -117 l-11 -62 -35 0
-35 0 18 28 c54 84 67 102 70 99 2 -2 -1 -31 -7 -65z"/>
<path d="M5465 2519 c-27 -4 -59 -13 -72 -20 -24 -13 -48 -62 -38 -78 12 -20
25 -11 25 18 0 35 19 52 70 61 37 7 53 -1 31 -15 -6 -3 -44 -56 -87 -118 -97
-142 -120 -167 -156 -167 -29 0 -38 -17 -14 -26 24 -9 68 24 116 87 42 56 47
59 87 59 47 0 46 1 26 -72 -4 -16 3 -18 49 -17 29 1 41 4 26 6 -34 5 -35 19
-13 168 17 117 17 125 8 124 -5 -1 -30 -5 -58 -10z m14 -117 l-11 -62 -35 0
-35 0 18 28 c54 84 67 102 70 99 2 -2 -1 -31 -7 -65z"/>
<path d="M6985 2493 c-21 -20 -59 -70 -86 -110 l-47 -73 -7 78 c-3 42 -7 88
-8 102 -2 22 -6 25 -42 24 -60 -1 -89 -11 -118 -40 -31 -31 -38 -91 -12 -101
23 -8 26 0 13 35 -11 28 -10 34 12 57 21 23 84 44 96 32 9 -8 -24 -144 -44
-184 -26 -50 -45 -66 -82 -67 -17 -1 -31 -5 -32 -11 -5 -17 52 -18 76 -1 32
20 74 108 82 169 9 62 23 43 25 -33 0 -30 4 -75 7 -100 l7 -45 34 60 c37 66
101 158 107 152 2 -2 -9 -49 -25 -105 l-28 -102 51 1 c29 1 39 4 24 6 -16 2
-28 10 -28 17 0 7 16 70 35 141 19 70 34 130 32 132 -2 2 -21 -13 -42 -34z"/>
<path d="M10145 2519 c-27 -4 -59 -13 -72 -20 -24 -13 -48 -62 -38 -78 12 -20
25 -11 25 18 0 35 19 52 70 61 37 7 53 -1 31 -15 -6 -3 -44 -56 -87 -118 -101
-148 -122 -170 -156 -163 -21 4 -28 1 -33 -14 -17 -53 -82 -2 -113 88 -11 31
-23 64 -26 73 -5 10 3 20 26 31 40 18 63 57 55 91 -19 74 -197 56 -247 -25
-33 -55 -23 -128 18 -128 10 0 8 9 -8 35 -20 33 -21 36 -5 69 19 41 46 60 103
75 70 19 116 -17 91 -72 -12 -26 -64 -55 -76 -43 -4 3 -2 27 4 52 10 44 10 45
-11 40 -11 -3 -25 -6 -29 -6 -5 0 -5 -5 -2 -11 7 -10 -30 -175 -43 -195 -4 -6
-16 -16 -27 -22 -16 -9 -8 -11 45 -10 36 0 54 3 42 5 -20 4 -23 9 -17 31 28
116 32 120 55 47 33 -105 78 -155 138 -155 58 0 112 34 162 100 42 57 47 60
87 60 47 0 46 1 26 -72 -4 -16 3 -18 49 -17 29 1 41 4 26 6 -34 5 -35 19 -13
168 17 117 17 125 8 124 -5 -1 -30 -5 -58 -10z m14 -117 l-11 -62 -35 0 -35 0
18 28 c54 84 67 102 70 99 2 -2 -1 -31 -7 -65z"/>
<path d="M11325 2493 c-21 -20 -59 -70 -86 -110 l-47 -73 -7 78 c-3 42 -7 88
-8 102 -2 22 -6 25 -42 24 -60 -1 -89 -11 -118 -40 -31 -31 -38 -91 -12 -101
23 -8 26 0 13 35 -11 28 -10 34 12 57 21 23 84 44 96 32 9 -8 -24 -144 -44
-184 -26 -50 -45 -66 -82 -67 -17 -1 -31 -5 -32 -11 -5 -17 52 -18 76 -1 32
20 74 108 82 169 9 62 23 43 25 -33 0 -30 4 -75 7 -100 l7 -45 34 60 c37 66
101 158 107 152 2 -2 -9 -49 -25 -105 l-28 -102 51 1 c29 1 39 4 24 6 -16 2
-28 10 -28 17 0 7 16 70 35 141 19 70 34 130 32 132 -2 2 -21 -13 -42 -34z"/>
<path d="M12245 2493 c-21 -20 -59 -70 -86 -110 l-47 -73 -7 78 c-3 42 -7 88
-8 102 -2 22 -6 25 -42 24 -60 -1 -89 -11 -118 -40 -31 -31 -38 -91 -12 -101
23 -8 26 0 13 35 -11 28 -10 34 12 57 21 23 84 44 96 32 9 -8 -24 -144 -44
-184 -26 -50 -45 -66 -82 -67 -17 -1 -31 -5 -32 -11 -5 -17 52 -18 76 -1 32
20 74 108 82 169 9 62 23 43 25 -33 0 -30 4 -75 7 -100 l7 -45 34 60 c37 66
101 158 107 152 2 -2 -9 -49 -25 -105 l-28 -102 51 1 c29 1 39 4 24 6 -16 2
-28 10 -28 17 0 7 16 70 35 141 19 70 34 130 32 132 -2 2 -21 -13 -42 -34z"/>
<path d="M13153 2508 c-20 -22 -39 -72 -63 -167 -6 -23 -13 -41 -15 -39 -3 2
-20 51 -39 109 l-34 104 -42 -3 c-51 -3 -95 -25 -110 -53 -14 -26 -9 -71 9
-77 10 -3 12 3 6 26 -3 17 -1 40 4 51 11 20 86 50 96 39 8 -7 -23 -141 -47
-206 -23 -63 -47 -79 -82 -57 -25 17 -41 9 -27 -14 14 -22 81 -9 103 19 16 22
41 99 63 195 6 27 9 23 35 -55 16 -47 36 -103 46 -125 l17 -40 14 50 c7 28 23
86 35 129 25 91 44 116 82 109 19 -4 26 -1 26 11 0 25 -52 20 -77 -6z"/>
<path d="M16305 2519 c-11 -4 -50 -5 -86 -2 -78 6 -109 -6 -109 -43 0 -13 7
-27 15 -31 22 -8 30 4 16 21 -22 26 -4 33 64 22 l66 -9 -103 -106 c-159 -163
-159 -146 -9 -146 137 0 165 9 159 49 -4 28 -23 22 -23 -7 0 -19 -5 -22 -35
-19 -19 2 -67 4 -106 5 l-71 2 114 122 c63 67 120 124 126 126 5 1 8 8 6 14
-2 6 -12 7 -24 2z"/>
<path d="M1430 2513 c-39 -7 -87 -50 -100 -88 -14 -43 -6 -85 16 -85 12 0 15
5 9 23 -22 64 8 120 72 133 l32 6 -20 -78 c-37 -146 -48 -172 -77 -182 -21 -7
1 -10 88 -15 91 -4 120 -2 138 9 25 16 30 54 7 54 -9 0 -15 -9 -15 -25 0 -25
0 -25 -72 -19 -40 4 -75 8 -77 10 -1 1 6 29 16 61 18 54 22 58 53 61 24 3 38
-2 47 -14 11 -15 13 -16 13 -2 0 9 3 25 6 35 6 15 4 16 -7 6 -7 -7 -31 -13
-52 -13 -37 0 -39 1 -33 26 4 15 10 39 13 55 5 28 8 29 59 29 45 0 54 -3 54
-17 0 -15 2 -16 10 -3 22 35 12 40 -72 39 -46 -1 -94 -4 -108 -6z"/>
<path d="M1842 2495 c-53 -44 -49 -97 12 -154 34 -32 34 -74 1 -107 -35 -35
-84 -30 -103 9 -15 31 -42 36 -42 8 0 -46 90 -67 150 -36 71 37 78 93 20 160
-43 50 -50 83 -22 107 42 37 81 25 83 -25 1 -32 1 -32 10 7 11 46 2 56 -48 56
-19 0 -43 -10 -61 -25z"/>
<path d="M2162 2499 c-24 -12 -54 -38 -68 -58 -30 -44 -33 -110 -6 -134 37
-34 44 -12 11 32 l-21 29 20 44 c22 52 67 84 130 94 76 12 111 -31 77 -95 -15
-30 -33 -41 -67 -41 -17 0 -19 4 -14 26 21 81 20 86 -5 82 -13 -2 -23 -9 -21
-16 3 -18 -39 -185 -52 -201 -5 -7 -19 -17 -31 -21 -13 -6 9 -8 60 -8 44 1 64
3 44 5 l-37 4 13 49 c17 65 21 70 58 70 68 0 118 55 103 113 -12 49 -118 63
-194 26z"/>
<path d="M2540 2513 c-39 -7 -87 -50 -100 -88 -14 -43 -6 -85 16 -85 12 0 15
5 9 23 -22 64 8 120 72 133 l32 6 -20 -78 c-37 -146 -48 -172 -77 -182 -21 -7
1 -10 88 -15 91 -4 120 -2 138 9 25 16 30 54 7 54 -9 0 -15 -9 -15 -25 0 -25
0 -25 -72 -19 -40 4 -75 8 -77 10 -1 1 6 29 16 61 18 54 22 58 53 61 24 3 38
-2 47 -14 11 -15 13 -16 13 -2 0 9 3 25 6 35 6 15 4 16 -7 6 -7 -7 -31 -13
-52 -13 -37 0 -39 1 -33 26 4 15 10 39 13 55 5 28 8 29 59 29 45 0 54 -3 54
-17 0 -15 2 -16 10 -3 22 35 12 40 -72 39 -46 -1 -94 -4 -108 -6z"/>
<path d="M2954 2492 c-145 -106 -110 -352 42 -302 33 11 80 58 68 69 -3 3 -13
-4 -22 -16 -57 -74 -142 -31 -142 71 0 81 60 176 122 191 33 8 68 -23 69 -62
1 -23 3 -21 10 11 12 49 4 58 -58 63 -41 4 -54 1 -89 -25z"/>
<path d="M3325 2510 c-27 -4 -40 -8 -28 -8 21 -2 21 -4 8 -54 -44 -183 -47
-190 -79 -204 -30 -13 -28 -13 39 -12 39 0 60 3 47 5 -16 3 -21 10 -18 21 3 9
16 64 31 121 29 116 31 121 50 121 8 0 17 5 20 10 3 6 0 9 -7 8 -7 0 -35 -4
-63 -8z"/>
<path d="M4031 2489 c-19 -19 -37 -52 -47 -87 -34 -124 -45 -149 -67 -159 -16
-7 6 -11 91 -17 129 -7 155 0 150 42 -4 32 -23 31 -23 -1 0 -24 2 -23 -116
-19 -40 2 -49 5 -41 15 5 6 20 48 32 92 37 132 65 172 100 140 22 -20 48 -11
29 11 -21 25 -74 17 -108 -17z"/>
<path d="M4415 2510 c-27 -4 -40 -8 -28 -8 21 -2 21 -4 8 -54 -44 -183 -47
-190 -79 -204 -30 -13 -28 -13 39 -12 39 0 60 3 47 5 -16 3 -21 10 -18 21 3 9
16 64 31 121 29 116 31 121 50 121 8 0 17 5 20 10 3 6 0 9 -7 8 -7 0 -35 -4
-63 -8z"/>
<path d="M4692 2495 c-53 -44 -49 -97 12 -154 34 -32 34 -74 1 -107 -35 -35
-84 -30 -103 9 -15 31 -42 36 -42 8 0 -46 90 -67 150 -36 71 37 78 93 20 160
-43 50 -50 83 -22 107 42 37 81 25 83 -25 1 -32 1 -32 10 7 11 46 2 56 -48 56
-19 0 -43 -10 -61 -25z"/>
<path d="M5782 2495 c-53 -44 -49 -97 12 -154 34 -32 34 -74 1 -107 -35 -35
-84 -30 -103 9 -15 31 -42 36 -42 8 0 -46 90 -67 150 -36 71 37 78 93 20 160
-43 50 -50 83 -22 107 42 37 81 25 83 -25 1 -32 1 -32 10 7 11 46 2 56 -48 56
-19 0 -43 -10 -61 -25z"/>
<path d="M6320 2513 c-39 -7 -87 -50 -100 -88 -14 -43 -6 -85 16 -85 12 0 15
5 9 23 -22 64 8 120 72 133 l32 6 -20 -78 c-37 -146 -48 -172 -77 -182 -21 -7
1 -10 88 -15 91 -4 120 -2 138 9 25 16 30 54 7 54 -9 0 -15 -9 -15 -25 0 -25
0 -25 -72 -19 -40 4 -75 8 -77 10 -1 1 6 29 16 61 18 54 22 58 53 61 24 3 38
-2 47 -14 11 -15 13 -16 13 -2 0 9 3 25 6 35 6 15 4 16 -7 6 -7 -7 -31 -13
-52 -13 -37 0 -39 1 -33 26 4 15 10 39 13 55 5 28 8 29 59 29 45 0 54 -3 54
-17 0 -15 2 -16 10 -3 22 35 12 40 -72 39 -46 -1 -94 -4 -108 -6z"/>
<path d="M7453 2500 c-25 -11 -51 -33 -63 -52 -33 -55 -23 -128 18 -128 10 0
8 9 -8 35 -20 33 -21 36 -5 69 19 41 46 60 103 75 70 19 116 -17 91 -72 -12
-26 -64 -55 -76 -43 -4 3 -2 27 4 52 10 44 10 45 -11 40 -11 -3 -25 -6 -29 -6
-5 0 -5 -5 -2 -11 7 -10 -30 -175 -43 -195 -4 -6 -16 -16 -27 -22 -16 -9 -8
-11 45 -10 36 0 54 3 42 5 -20 4 -23 9 -17 31 28 116 32 120 55 47 20 -63 47
-111 76 -134 35 -27 99 -29 113 -2 10 18 6 31 -10 31 -4 0 -11 -9 -14 -20 -17
-53 -82 -3 -113 88 -11 31 -23 64 -26 73 -5 10 3 20 26 31 63 29 76 102 23
126 -38 18 -104 14 -152 -8z"/>
<path d="M7860 2513 c-39 -7 -87 -50 -100 -88 -14 -43 -6 -85 16 -85 12 0 15
5 9 23 -22 64 8 120 72 133 l32 6 -20 -78 c-37 -146 -48 -172 -77 -182 -21 -7
1 -10 88 -15 91 -4 120 -2 138 9 25 16 30 54 7 54 -9 0 -15 -9 -15 -25 0 -25
0 -25 -72 -19 -40 4 -75 8 -77 10 -1 1 6 29 16 61 18 54 22 58 53 61 24 3 38
-2 47 -14 11 -15 13 -16 13 -2 0 9 3 25 6 35 6 15 4 16 -7 6 -7 -7 -31 -13
-52 -13 -37 0 -39 1 -33 26 4 15 10 39 13 55 5 28 8 29 59 29 45 0 54 -3 54
-17 0 -15 2 -16 10 -3 22 35 12 40 -72 39 -46 -1 -94 -4 -108 -6z"/>
<path d="M8302 2499 c-99 -50 -140 -179 -79 -246 25 -28 73 -38 110 -24 32 13
33 12 6 -49 -23 -55 -51 -71 -78 -46 -23 21 -43 20 -39 -1 5 -29 49 -38 90
-19 40 19 71 68 89 141 6 28 16 56 22 63 7 9 2 12 -19 12 -26 0 -29 -4 -31
-33 -6 -76 -108 -79 -133 -3 -22 68 24 161 96 196 54 26 87 18 106 -27 l12
-28 4 33 c2 19 2 36 0 38 -2 2 -29 6 -59 9 -44 5 -62 2 -97 -16z"/>
<path d="M8695 2510 c-27 -4 -40 -8 -28 -8 21 -2 21 -4 8 -54 -44 -183 -47
-190 -79 -204 -30 -13 -28 -13 39 -12 39 0 60 3 47 5 -16 3 -21 10 -18 21 3 9
16 64 31 121 29 116 31 121 50 121 8 0 17 5 20 10 3 6 0 9 -7 8 -7 0 -35 -4
-63 -8z"/>
<path d="M8972 2495 c-53 -44 -49 -97 12 -154 34 -32 34 -74 1 -107 -35 -35
-84 -30 -103 9 -15 31 -42 36 -42 8 0 -46 90 -67 150 -36 71 37 78 93 20 160
-43 50 -50 83 -22 107 42 37 81 25 83 -25 1 -32 1 -32 10 7 11 46 2 56 -48 56
-19 0 -43 -10 -61 -25z"/>
<path d="M10453 2500 c-25 -11 -51 -33 -63 -52 -33 -55 -23 -128 18 -128 10 0
8 9 -8 35 -20 33 -21 36 -5 69 19 41 46 60 103 75 70 19 116 -17 91 -72 -12
-26 -64 -55 -76 -43 -4 3 -2 27 4 52 10 44 10 45 -11 40 -11 -3 -25 -6 -29 -6
-5 0 -5 -5 -2 -11 7 -10 -30 -175 -43 -195 -4 -6 -16 -16 -27 -22 -16 -9 -8
-11 45 -10 36 0 54 3 42 5 -20 4 -23 9 -17 31 28 116 32 120 55 47 20 -63 47
-111 76 -134 35 -27 99 -29 113 -2 10 18 6 31 -10 31 -4 0 -11 -9 -14 -20 -17
-53 -82 -3 -113 88 -11 31 -23 64 -26 73 -5 10 3 20 26 31 63 29 76 102 23
126 -38 18 -104 14 -152 -8z"/>
<path d="M11600 2502 c-67 -33 -112 -134 -91 -204 21 -68 89 -93 164 -60 80
36 127 150 90 222 -31 59 -96 76 -163 42z m104 -21 c67 -73 16 -241 -73 -241
-78 0 -112 107 -65 202 29 56 103 77 138 39z"/>
<path d="M12510 2513 c-39 -7 -87 -50 -100 -88 -14 -43 -6 -85 16 -85 12 0 15
5 9 23 -22 64 8 120 72 133 l32 6 -20 -78 c-37 -146 -48 -172 -77 -182 -21 -7
1 -10 88 -15 91 -4 120 -2 138 9 25 16 30 54 7 54 -9 0 -15 -9 -15 -25 0 -25
0 -25 -72 -19 -40 4 -75 8 -77 10 -1 1 6 29 16 61 18 54 22 58 53 61 24 3 38
-2 47 -14 11 -15 13 -16 13 -2 0 9 3 25 6 35 6 15 4 16 -7 6 -7 -7 -31 -13
-52 -13 -37 0 -39 1 -33 26 4 15 10 39 13 55 5 28 8 29 59 29 45 0 54 -3 54
-17 0 -15 2 -16 10 -3 22 35 12 40 -72 39 -46 -1 -94 -4 -108 -6z"/>
<path d="M13730 2502 c-67 -33 -112 -134 -91 -204 21 -68 89 -93 164 -60 80
36 127 150 90 222 -31 59 -96 76 -163 42z m104 -21 c67 -73 16 -241 -73 -241
-78 0 -112 107 -65 202 29 56 103 77 138 39z"/>
<path d="M14122 2495 c-53 -44 -49 -97 12 -154 34 -32 34 -74 1 -107 -35 -35
-84 -30 -103 9 -15 31 -42 36 -42 8 0 -46 90 -67 150 -36 71 37 78 93 20 160
-43 50 -50 83 -22 107 42 37 81 25 83 -25 1 -32 1 -32 10 7 11 46 2 56 -48 56
-19 0 -43 -10 -61 -25z"/>
<path d="M14675 2513 c-32 -9 -65 -34 -81 -64 -19 -38 -19 -109 1 -109 11 0
13 10 8 48 -4 41 -2 51 20 74 23 25 72 46 82 36 3 -2 -10 -57 -27 -121 -26
-101 -35 -120 -57 -132 -24 -13 -22 -14 44 -13 39 1 57 3 42 5 -24 4 -28 8
-23 26 4 12 12 43 18 70 11 44 13 47 45 47 23 0 36 -6 40 -17 5 -14 8 -11 15
12 8 33 3 44 -14 27 -7 -7 -25 -12 -41 -12 -27 0 -28 2 -22 33 17 74 21 78 72
75 41 -3 48 -6 45 -23 -2 -16 -1 -17 7 -5 6 8 11 23 11 33 0 15 -10 17 -82 16
-46 -1 -92 -4 -103 -6z"/>
<path d="M15050 2513 c-39 -7 -87 -50 -100 -88 -14 -43 -6 -85 16 -85 12 0 15
5 9 23 -22 64 8 120 72 133 l32 6 -20 -78 c-37 -146 -48 -172 -77 -182 -21 -7
1 -10 88 -15 91 -4 120 -2 138 9 25 16 30 54 7 54 -9 0 -15 -9 -15 -25 0 -25
0 -25 -72 -19 -40 4 -75 8 -77 10 -1 1 6 29 16 61 18 54 22 58 53 61 24 3 38
-2 47 -14 11 -15 13 -16 13 -2 0 9 3 25 6 35 6 15 4 16 -7 6 -7 -7 -31 -13
-52 -13 -37 0 -39 1 -33 26 4 15 10 39 13 55 5 28 8 29 59 29 45 0 54 -3 54
-17 0 -15 2 -16 10 -3 22 35 12 40 -72 39 -46 -1 -94 -4 -108 -6z"/>
<path d="M15481 2489 c-19 -19 -37 -52 -47 -87 -34 -124 -45 -149 -67 -159
-16 -7 6 -11 91 -17 129 -7 155 0 150 42 -4 32 -23 31 -23 -1 0 -24 2 -23
-116 -19 -40 2 -49 5 -41 15 5 6 20 48 32 92 37 132 65 172 100 140 22 -20 48
-11 29 11 -21 25 -74 17 -108 -17z"/>
<path d="M15865 2510 c-27 -4 -40 -8 -28 -8 21 -2 21 -4 8 -54 -44 -183 -47
-190 -79 -204 -30 -13 -28 -13 39 -12 39 0 60 3 47 5 -16 3 -21 10 -18 21 3 9
16 64 31 121 29 116 31 121 50 121 8 0 17 5 20 10 3 6 0 9 -7 8 -7 0 -35 -4
-63 -8z"/>
<path d="M16550 2513 c-39 -7 -87 -50 -100 -88 -14 -43 -6 -85 16 -85 12 0 15
5 9 23 -22 64 8 120 72 133 l32 6 -20 -78 c-37 -146 -48 -172 -77 -182 -21 -7
1 -10 88 -15 91 -4 120 -2 138 9 25 16 30 54 7 54 -9 0 -15 -9 -15 -25 0 -25
0 -25 -72 -19 -40 4 -75 8 -77 10 -1 1 6 29 16 61 18 54 22 58 53 61 24 3 38
-2 47 -14 11 -15 13 -16 13 -2 0 9 3 25 6 35 6 15 4 16 -7 6 -7 -7 -31 -13
-52 -13 -37 0 -39 1 -33 26 4 15 10 39 13 55 5 28 8 29 59 29 45 0 54 -3 54
-17 0 -15 2 -16 10 -3 22 35 12 40 -72 39 -46 -1 -94 -4 -108 -6z"/>
<path d="M16962 2495 c-53 -44 -49 -97 12 -154 34 -32 34 -74 1 -107 -35 -35
-84 -30 -103 9 -15 31 -42 36 -42 8 0 -46 90 -67 150 -36 71 37 78 93 20 160
-43 50 -50 83 -22 107 42 37 81 25 83 -25 1 -32 1 -32 10 7 11 46 2 56 -48 56
-19 0 -43 -10 -61 -25z"/>
<path d="M17180 2255 c0 -20 5 -25 25 -25 20 0 25 5 25 25 0 20 -5 25 -25 25
-20 0 -25 -5 -25 -25z"/>
</g>
</svg>
